<?xml version="1.0" encoding="utf-8"?>
<!DOCTYPE svg PUBLIC "-//W3C//DTD SVG 1.1//EN" "http://www.w3.org/Graphics/SVG/1.1/DTD/svg11.dtd" [
	<!ENTITY ns_extend "http://ns.adobe.com/Extensibility/1.0/">
	<!ENTITY ns_ai "http://ns.adobe.com/AdobeIllustrator/10.0/">
	<!ENTITY ns_graphs "http://ns.adobe.com/Graphs/1.0/">
	<!ENTITY ns_vars "http://ns.adobe.com/Variables/1.0/">
	<!ENTITY ns_imrep "http://ns.adobe.com/ImageReplacement/1.0/">
	<!ENTITY ns_sfw "http://ns.adobe.com/SaveForWeb/1.0/">
	<!ENTITY ns_custom "http://ns.adobe.com/GenericCustomNamespace/1.0/">
	<!ENTITY ns_adobe_xpath "http://ns.adobe.com/XPath/1.0/">
]>
<svg xmlns="http://www.w3.org/2000/svg" xml:space="preserve" width="149.189" height="132.243">
  <switch>
    <g>
      <path d="M122.912 34.492c0 .383-.109.718-.345 1.036-.239.301-.485.458-.772.458-2.287.212-4.174.957-5.627 2.218-1.459 1.241-2.964 3.648-4.522 7.183L87.92 98.855c-.15.503-.584.752-1.306.752-.567 0-1.001-.25-1.306-.752l-13.315-27.83-15.291 27.83c-.322.503-.756.752-1.323.752-.673 0-1.125-.25-1.354-.752L30.719 45.387c-1.453-3.33-2.995-5.634-4.611-6.957-1.617-1.312-3.856-2.14-6.745-2.444-.246 0-.482-.13-.697-.393-.222-.264-.335-.568-.335-.903 0-.885.253-1.309.755-1.309 2.075 0 4.239.085 6.522.273 2.099.195 4.092.28 5.938.28 1.897 0 4.136-.085 6.71-.28 2.701-.188 5.097-.273 7.165-.273.499 0 .745.424.745 1.309 0 .858-.164 1.296-.451 1.296-2.085.147-3.715.681-4.915 1.576-1.197.902-1.795 2.079-1.795 3.538 0 .752.253 1.679.738 2.786l19.27 43.528L69.96 66.752 59.769 45.387c-1.829-3.805-3.347-6.28-4.519-7.377-1.189-1.101-2.964-1.777-5.357-2.023-.215 0-.427-.13-.615-.393-.215-.264-.314-.568-.314-.903 0-.885.215-1.309.656-1.309 2.079 0 3.99.085 5.719.273 1.675.195 3.463.28 5.357.28 1.856 0 3.815-.085 5.9-.28 2.14-.188 4.259-.273 6.334-.273.492 0 .738.424.738 1.309 0 .858-.14 1.296-.451 1.296-4.161.28-6.246 1.456-6.246 3.535 0 .93.485 2.373 1.436 4.324l6.755 13.684 6.71-12.512c.92-1.771 1.385-3.265 1.385-4.471 0-2.854-2.075-4.369-6.235-4.56-.369 0-.557-.438-.557-1.296 0-.321.092-.612.28-.885.188-.28.376-.424.55-.424 1.5 0 3.33.085 5.497.273 2.082.195 3.788.28 5.127.28.958 0 2.379-.075 4.226-.239 2.362-.205 4.331-.314 5.92-.314.37 0 .544.362.544 1.111 0 .988-.338 1.494-1.019 1.494-2.42.246-4.365.909-5.842 2.003-1.466 1.087-3.306 3.548-5.503 7.398l-8.95 16.528 12.108 24.651 17.878-41.549c.616-1.524.934-2.916.934-4.191 0-3.036-2.092-4.649-6.252-4.84-.369 0-.557-.438-.557-1.296 0-.885.28-1.309.844-1.309 1.511 0 3.316.085 5.401.273 1.911.195 3.535.28 4.83.28 1.371 0 2.964-.085 4.752-.28 1.87-.188 3.535-.273 5.028-.273.436-.001.651.362.651 1.11z"/>
      <path fill="none" stroke="#000" stroke-miterlimit="10" stroke-width="3.5005" d="M14.5 11.537h112.017v108.517H14.5z"/>
    </g>
  </switch>
</svg>