<?xml version="1.0" encoding="UTF-8"?>
<!DOCTYPE svg PUBLIC "-//W3C//DTD SVG 1.1//EN" "http://www.w3.org/Graphics/SVG/1.1/DTD/svg11.dtd">
<svg version="1.1" xmlns="http://www.w3.org/2000/svg" xmlns:xlink="http://www.w3.org/1999/xlink" x="0" y="0" width="600" height="300" viewBox="0, 0, 600, 300">
  <g id="Background">
    <rect x="0" y="0" width="600" height="300" fill="#FFFFFF"/>
  </g>
  <g id="Layer_1">
    <path d="M20.435,271.155 L19.441,270.3 L20.076,268.099 C20.425,266.888 21.225,264.981 21.854,263.86 C23.674,260.618 29.315,252.37 32.154,248.799 C36.408,243.449 44.378,234.982 49.82,230.031 C54.712,225.58 56.788,223.802 62.968,218.773 C64.524,217.506 67.638,214.269 69.886,211.579 L73.975,206.689 L72.164,204.774 C67.163,199.486 63.815,188.1 62.471,171.81 C61.93,165.241 62.239,149.465 63.009,144.395 C66.587,120.844 76.594,102.598 93.249,89.259 C107.954,77.482 127.049,70.5 144.555,70.5 C149.532,70.5 151.795,71.092 154.252,73.038 C159.996,77.586 159.846,87.924 153.809,103.653 C146.705,122.163 133.264,141.153 93.696,188.579 C82.908,201.51 78.933,206.518 79.336,206.672 C79.652,206.794 81.697,205.839 84.07,204.462 C89.896,201.083 103.171,194.675 109.363,192.253 C125.266,186.032 139.459,182.537 155.48,180.894 C161.2,180.308 177.383,179.764 181.173,180.031 C183.908,180.223 184.633,180.412 185.525,181.162 C186.759,182.2 186.893,183.231 185.905,184.077 C185.302,184.593 185.268,184.847 185.633,186.084 C185.922,187.062 185.957,188.911 185.745,192.064 C185.577,194.575 185.408,198.295 185.369,200.333 L185.299,204.037 L186.365,203.961 C188.969,203.775 195.386,198.81 202.929,191.145 L208.335,185.653 L207.607,183.547 C206.55,180.491 206.32,173.793 207.132,169.731 C209.263,159.081 216.011,145.896 225.31,134.213 C245.296,109.1 282.085,82.527 314.976,69.444 C331.834,62.738 345.396,59.819 357.731,60.241 C367.224,60.566 373.322,62.124 378.538,65.558 C388.474,72.098 390.791,83.219 386.971,106.033 C384.958,118.052 381.045,131.833 376.181,144.029 C373.588,150.531 368.044,161.935 364.655,167.736 L362.275,171.81 L363.669,172.015 C365.381,172.267 367.646,173.932 367.956,175.166 C368.744,178.306 366.078,183.278 361.031,188.081 C357.769,191.184 357.63,191.38 358.31,191.889 C365.068,196.953 377.31,195.506 387.179,188.476 C390.351,186.217 390.952,185.439 391.248,183.214 C391.544,180.989 393.491,176.726 394.891,175.237 C395.62,174.461 396.196,174.218 397.303,174.218 C399.23,174.218 399.75,174.889 399.46,177.003 C399.194,178.942 398.203,181.015 396.204,183.817 C395.417,184.92 394.773,186.187 394.773,186.633 C394.773,188.007 396.364,189.908 398.487,191.07 C400.33,192.079 400.818,192.177 403.848,192.154 C409.903,192.107 416.225,189.73 421.268,185.603 C427.847,180.218 428.594,179.871 430.403,181.362 C431.724,182.451 432.121,183.623 432.408,187.277 C432.718,191.244 433.352,192.646 434.97,192.95 C436.859,193.304 439.903,192.225 443.118,190.06 C444.712,188.987 446.696,187.654 447.528,187.097 C449.557,185.739 450.454,185.809 452.224,187.461 C453.8,188.932 453.794,188.911 454.616,195.793 C454.751,196.924 455.173,197.963 455.797,198.705 C456.685,199.76 456.907,199.84 458.374,199.639 C460.503,199.348 461.94,198.582 464.503,196.376 C469.97,191.669 472.483,190.773 477.45,191.759 C479.142,192.095 481.373,192.369 482.409,192.369 C484.014,192.369 484.505,192.185 485.737,191.12 L487.182,189.871 L486.328,186.614 C484.463,179.506 483.107,177.992 475.09,174.072 C466.566,169.904 463.612,167.099 461.366,161.043 C460.169,157.816 460.182,151.419 461.393,147.557 C463.185,141.843 465.561,138.804 469.783,136.824 C472.984,135.322 475.577,134.8 479.785,134.807 C487.392,134.821 493.464,137.616 495.996,142.268 C497.774,145.533 498.253,148.216 498.23,154.771 C498.185,167.643 496.053,180.04 492.538,187.877 C491.356,190.513 491.337,190.627 492.009,191.118 C492.918,191.783 495.215,191.768 496.844,191.088 C498.696,190.314 502.087,187.614 504.556,184.946 C508.202,181.009 508.271,180.871 508.333,177.448 C508.381,174.767 508.766,173.164 511.555,164.031 C520.157,135.861 531.119,103.01 537.265,86.984 C547.424,60.489 560.502,33.791 565.558,29.224 C568.115,26.913 569.982,27.818 569.982,31.368 C569.982,38.426 559.296,74.878 547.759,107.172 C538.035,134.388 527.64,157.913 519.564,170.977 C518.588,172.556 517.906,173.846 518.049,173.844 C518.192,173.842 519.976,172.458 522.014,170.768 L525.719,167.696 L526.177,164.329 C526.665,160.749 528.237,155.829 530.06,152.178 C534.423,143.441 542.724,135.213 551.647,130.783 C556.359,128.443 560.976,126.787 563.392,126.569 C565.437,126.385 565.882,126.468 567.019,127.242 C568.056,127.948 568.339,128.404 568.432,129.521 C568.609,131.656 567.359,133.769 563.299,138.196 C559.111,142.764 544.309,156.926 537.216,163.152 C528.645,170.676 529.469,169.68 529.562,172.404 C529.75,177.863 531.313,185.164 533.552,191.037 C539.251,205.99 553.897,227.89 575.316,253.488 C580.273,259.412 581.322,261.082 580.085,261.082 C579.375,261.082 572.928,255.226 567.444,249.598 C558.264,240.178 549.888,229.543 542.502,217.928 C532.049,201.49 527.309,189.901 525.91,177.367 C525.705,175.533 525.537,173.826 525.535,173.574 C525.533,173.321 523.74,174.453 521.55,176.088 C519.36,177.724 516.438,179.615 515.057,180.291 C512.939,181.327 512.152,182.006 510.032,184.629 C508.65,186.339 506.143,188.925 504.462,190.376 C498.958,195.125 495.242,196.273 491.268,194.454 L489.143,193.481 L487.299,194.835 C485.664,196.035 485.145,196.209 482.723,196.364 C480.951,196.478 478.814,196.311 476.642,195.889 C472.302,195.046 470.985,195.397 466.557,198.576 C462.219,201.691 459.766,202.799 457.071,202.861 C455.264,202.903 454.748,202.753 453.547,201.837 C451.712,200.437 450.817,198.614 450.322,195.272 C450.101,193.777 449.841,192.02 449.744,191.367 C449.532,189.937 449.26,190 446.083,192.217 C439.124,197.073 433.631,198.08 430.753,195.029 C429.012,193.182 428.593,191.993 428.283,188.016 C428.136,186.132 427.952,184.59 427.875,184.59 C427.798,184.59 426.527,185.607 425.052,186.851 C421.561,189.793 419.966,190.882 416.813,192.474 C411.474,195.17 404.727,196.524 400.64,195.72 C396.844,194.974 393.055,192.63 392.164,190.478 C391.919,189.888 391.615,189.407 391.487,189.409 C391.359,189.411 390.504,190.01 389.587,190.741 C385.761,193.79 379.824,196.624 374.842,197.779 C371.769,198.492 366.241,198.481 363.115,197.756 C360.25,197.092 357.523,195.778 355.715,194.19 L354.413,193.047 L350.608,194.515 C348.515,195.323 345.558,196.281 344.036,196.644 C341.511,197.246 340.932,197.578 337.391,200.447 C327.593,208.388 316.39,213.932 305.775,216.095 C300.947,217.079 293.341,217.42 289.044,216.844 C280.135,215.651 271.49,211.252 266.822,205.537 C265.59,204.028 262.633,198.822 262.123,197.263 C262.002,196.892 261.105,196.992 258.082,197.715 C248.746,199.948 240.396,200.794 233.72,200.185 C231.265,199.961 229.022,199.688 228.737,199.579 C228.318,199.418 228.25,199.807 228.381,201.616 C228.52,203.538 228.454,203.852 227.912,203.852 C227.488,203.852 226.907,203.009 226.141,201.287 C225.013,198.748 224.979,198.714 222.746,197.914 C221.505,197.47 219.343,196.453 217.941,195.655 L215.393,194.203 L213.426,196.064 C211.295,198.08 210.411,198.327 209.386,197.195 C208.751,196.492 208.756,196.341 209.514,193.319 C210.378,189.872 210.491,188.664 209.947,188.664 C209.751,188.664 207.042,191.159 203.927,194.208 C195.018,202.927 188.725,207.556 185.777,207.556 C184.427,207.556 182.738,206.695 181.988,205.624 C181.232,204.544 181.232,200.746 181.988,193.876 C182.306,190.986 182.515,188.291 182.451,187.889 C182.351,187.256 181.885,187.49 179.018,189.606 C170.715,195.735 163.395,198.657 156.332,198.663 C151.799,198.667 149.739,198.111 147.856,196.376 C146.472,195.1 146.234,194.649 146.014,192.885 C145.725,190.576 146.298,188.025 147.426,186.59 C147.828,186.08 148.061,185.567 147.945,185.451 C147.606,185.112 138.765,186.761 132.433,188.344 C118.248,191.889 100.613,198.963 87.597,206.33 C84.504,208.08 83.993,208.667 85.559,208.667 C86.036,208.667 86.222,208.878 86.132,209.316 C85.991,209.998 85.75,210.032 83.55,209.681 C82.31,209.483 81.777,209.73 77.723,212.381 C68.668,218.303 69.785,217.115 46.578,245.524 C32.674,262.545 30.166,265.508 26.898,268.768 C23.285,272.373 22.282,272.743 20.435,271.155 M41.179,246.106 C50.945,234.309 52.539,232.232 50.326,234.191 C42.605,241.022 31.235,254.797 26.601,262.934 C25.796,264.348 25.839,264.324 27.554,262.405 C28.543,261.299 34.674,253.964 41.179,246.106 M304.205,212.19 C311.814,210.841 321.662,206.632 329.488,201.384 C331.781,199.846 333.75,198.439 333.862,198.257 C333.975,198.074 333.465,197.925 332.73,197.925 C330.698,197.925 326.606,196.892 324.983,195.969 C323.179,194.944 322.322,193.78 321.746,191.575 C320.695,187.55 323.406,180.179 327.872,174.92 L330.264,172.104 L325.939,172.273 C322.932,172.391 320.922,172.279 319.343,171.908 C316.404,171.217 316.045,171.352 304.76,177.375 C287.299,186.696 279.083,190.66 271.422,193.46 C269.079,194.317 266.861,195.133 266.492,195.273 C265.882,195.506 265.962,195.81 267.383,198.672 C271.012,205.977 279.368,211.362 289.203,212.735 C292.467,213.19 300.135,212.912 304.205,212.19 M89.803,187.924 C118.515,153.836 130.288,138.756 139.982,123.655 C148.77,109.965 154.256,96.864 155.475,86.661 C156.344,79.375 154.439,75.029 149.764,73.637 C142.792,71.561 123.33,75.233 111.585,80.842 C86.121,93.001 70.248,114.891 65.782,144.005 C64.351,153.337 64.472,169.7 66.049,180.29 C67.627,190.877 70.67,199.502 74.157,203.269 C75.479,204.697 75.515,204.71 76.179,204.01 C76.55,203.617 82.681,196.379 89.803,187.924 M248.234,195.515 C251.529,195.019 255.892,194.091 259.611,193.096 L260.95,192.738 L261.141,189.312 C261.384,184.973 261.985,183.397 266.496,175.271 C274.246,161.309 280.178,147.773 287.892,126.445 C292.42,113.926 297.109,97.288 298.647,88.28 C299.347,84.182 299.776,82.946 300.371,83.314 C300.969,83.683 300.529,91.419 299.604,96.82 C296.139,117.05 283.714,150.94 271.432,173.662 C266.001,183.71 265.388,185.156 265.199,188.387 C265.09,190.233 265.167,191.257 265.415,191.257 C266.322,191.257 275.403,187.601 281.199,184.903 C284.657,183.293 291.164,180.034 295.66,177.66 C307.309,171.51 315.528,167.56 316.688,167.555 C317.239,167.553 318.656,167.805 319.837,168.115 C321.427,168.533 323.542,168.656 327.975,168.587 C333.397,168.502 334.037,168.559 334.735,169.191 C335.159,169.574 335.505,170.157 335.505,170.485 C335.505,171.292 333.979,173.493 331.224,176.658 C327.73,180.673 326.279,183.491 325.458,187.85 C324.993,190.326 325.531,192.172 326.929,192.895 C328.636,193.778 332.402,194.321 335.637,194.151 C338.586,193.997 338.829,193.917 340.367,192.608 C344.589,189.014 352.632,179.456 357.244,172.551 C373.379,148.398 384.915,113.697 384.889,89.391 C384.884,83.937 384.757,82.446 384.09,79.994 C382.959,75.835 381.932,73.956 379.402,71.418 C374.128,66.127 365.85,63.911 352.816,64.3 C345.88,64.507 342.596,64.992 334.43,67.014 C302.159,75.003 263.188,98.221 237.272,124.897 C219.415,143.279 209.263,162.633 210.041,176.811 C210.29,181.356 211.18,183.869 212.681,184.27 C213.989,184.62 214.364,185.154 214.372,186.679 C214.375,187.318 214.683,188.219 215.057,188.681 L215.736,189.52 L217.683,187.981 C219.264,186.731 219.921,186.442 221.181,186.442 C222.034,186.442 223.106,186.704 223.562,187.023 C224.575,187.733 225.957,190.388 226.771,193.187 L227.377,195.271 L229.86,195.664 C231.225,195.88 232.843,196.131 233.454,196.221 C235.436,196.514 244.469,196.082 248.234,195.515 M164,194.028 C167.989,192.753 171.938,190.761 175.483,188.236 L178.261,186.257 L166.963,186.158 C154.506,186.049 152.23,186.284 150.798,187.83 C149.758,188.952 149.071,191.239 149.391,192.513 C149.943,194.712 151.797,195.364 156.962,195.177 C159.882,195.07 161.636,194.784 164,194.028 M222.313,192.091 C221.986,191.327 221.632,190.493 221.527,190.239 C221.422,189.984 221.171,189.776 220.97,189.776 C220.433,189.776 218.452,190.999 218.452,191.33 C218.452,191.666 221.764,193.438 222.439,193.463 C222.792,193.476 222.761,193.14 222.313,192.091 M350.6,190.699 C352.656,189.766 352.771,189.51 352.223,187.063 C351.991,186.027 351.963,186.046 349.224,189.068 C346.702,191.85 346.555,192.095 347.557,191.85 C348.161,191.702 349.53,191.184 350.6,190.699 M360.199,184.266 C362.332,182.085 364.769,178.18 364.769,176.942 C364.769,174.383 360.398,175.077 358.116,177.997 C356.322,180.293 355.174,184.447 355.687,186.782 L355.939,187.931 L357.049,187.14 C357.66,186.706 359.077,185.412 360.199,184.266 M490.273,183.849 C492.987,176.824 494.173,168.673 494.206,156.808 C494.23,148.089 494.198,147.66 493.378,145.881 C492.297,143.534 490.992,142.16 488.771,141.026 C483.173,138.17 474.361,138.493 469.555,141.731 C466.315,143.916 463.976,149.388 463.904,154.956 C463.855,158.795 464.614,161.494 466.541,164.337 C468.413,167.098 470.7,168.801 476.617,171.843 C483.876,175.574 486.445,178.311 488.329,184.317 C488.697,185.491 489.108,186.325 489.242,186.169 C489.376,186.014 489.84,184.97 490.273,183.849 M514.01,172.211 C525.707,154.154 539.197,122.484 553.703,79.02 C561.125,56.784 566.346,38.949 567.197,32.927 L567.455,31.1 L566.555,32.186 C560.79,39.145 547.317,68.223 537.647,94.577 C529.99,115.445 510.665,175.7 511.629,175.7 C511.696,175.7 512.767,174.13 514.01,172.211 M537.015,157.625 C549.429,146.271 564.056,131.556 564.056,130.419 C564.056,128.994 551.228,134.274 546.593,137.606 C542.942,140.232 538.583,144.754 536.086,148.507 C533.407,152.533 530.787,158.668 530.159,162.382 L529.885,164.004 L531.32,162.762 C532.109,162.08 534.672,159.768 537.015,157.625" fill="#000000"/>
  </g>
</svg>
